<?xml version="1.0" encoding="UTF-8"?>
<svg version="1.1" xmlns="http://www.w3.org/2000/svg" width="256" height="256">
<path d="M0 0 C1.00522375 -0.00701996 1.00522375 -0.00701996 2.03075504 -0.01418173 C4.28103871 -0.02616795 6.53071744 -0.01666083 8.78100586 -0.00723267 C10.39232744 -0.01129678 12.00364623 -0.01663775 13.61495972 -0.02316284 C17.99507835 -0.03686144 22.37498545 -0.03152736 26.75510788 -0.02202559 C31.33414032 -0.01444213 35.91315437 -0.02147093 40.4921875 -0.02618408 C48.18256896 -0.03164548 55.87286406 -0.02443997 63.56323242 -0.01016235 C72.4604729 0.00616491 81.35750715 0.00087667 90.25474262 -0.01564157 C97.88707656 -0.02924552 105.51934834 -0.03118145 113.15169048 -0.02332556 C117.71306935 -0.01864303 122.27435121 -0.01804007 126.83572388 -0.02793503 C131.12360435 -0.03658658 135.41121836 -0.03061612 139.69906998 -0.01325226 C141.27488894 -0.00927769 142.85073023 -0.01043799 144.42654037 -0.01704025 C146.57356508 -0.02520795 148.7197297 -0.01499331 150.86669922 0 C152.06942978 0.00113108 153.27216034 0.00226215 154.51133728 0.00342751 C157.43334961 0.38095093 157.43334961 0.38095093 159.32032776 1.68601036 C161.20000721 4.5484384 160.78753695 7.07520238 160.43334961 10.38095093 C159.32032776 12.07589149 159.32032776 12.07589149 157.43334961 13.38095093 C154.51133728 13.75847435 154.51133728 13.75847435 150.86669922 13.76190186 C149.86147547 13.76892181 149.86147547 13.76892181 148.83594418 13.77608359 C146.58566051 13.78806981 144.33598178 13.77856269 142.08569336 13.76913452 C140.47437178 13.77319863 138.86305299 13.77853961 137.2517395 13.7850647 C132.87162087 13.79876329 128.49171376 13.79342921 124.11159134 13.78392744 C119.5325589 13.77634399 114.95354485 13.78337279 110.37451172 13.78808594 C102.68413025 13.79354733 94.99383516 13.78634183 87.3034668 13.77206421 C78.40622632 13.75573695 69.50919207 13.76102519 60.6119566 13.77754343 C52.97962266 13.79114738 45.34735088 13.7930833 37.71500874 13.78522742 C33.15362987 13.78054489 28.59234801 13.77994193 24.03097534 13.78983688 C19.74309487 13.79848844 15.45548086 13.79251798 11.16762924 13.77515411 C9.59181028 13.77117955 8.01596898 13.77233984 6.44015884 13.77894211 C4.29313414 13.78710981 2.14696952 13.77689517 0 13.76190186 C-1.20273056 13.76077078 -2.40546112 13.7596397 -3.64463806 13.75847435 C-6.56665039 13.38095093 -6.56665039 13.38095093 -8.45362854 12.07589149 C-10.33330799 9.21346345 -9.92083773 6.68669947 -9.56665039 3.38095093 C-7.10615736 -0.36595615 -4.22398494 0.00397234 0 0 Z " fill="#7800A1" transform="translate(52.566650390625,74.61904907226563)"/>
<path d="M0 0 C0.91245483 -0.00525696 1.82490967 -0.01051392 2.76501465 -0.01593018 C5.7862247 -0.02915217 8.80690943 -0.02038425 11.828125 -0.01025391 C13.92415468 -0.01227401 16.02018367 -0.01518491 18.11621094 -0.01895142 C22.51113571 -0.02337775 26.9058777 -0.01693367 31.30078125 -0.00292969 C36.94031321 0.01416227 42.57941687 0.00432276 48.21893311 -0.01364708 C52.54772176 -0.02447649 56.87640851 -0.02104243 61.2052002 -0.0132637 C63.28487193 -0.01125937 65.36455286 -0.01372912 67.44421387 -0.02070236 C70.34847598 -0.02830291 73.25204001 -0.01673213 76.15625 0 C77.01972046 -0.00607269 77.88319092 -0.01214539 78.77282715 -0.0184021 C84.62454197 0.04420222 84.62454197 0.04420222 86.79901123 1.69324303 C88.91917453 4.50264973 88.44043292 7.006643 88.078125 10.38818359 C86.79901123 12.08312416 86.79901123 12.08312416 85.078125 13.38818359 C82.03627889 13.68461256 79.19922568 13.7977681 76.15625 13.77636719 C74.78756775 13.78425262 74.78756775 13.78425262 73.39123535 13.79229736 C70.3700253 13.80551936 67.34934057 13.79675143 64.328125 13.78662109 C62.23209532 13.78864119 60.13606633 13.7915521 58.04003906 13.7953186 C53.64511429 13.79974494 49.2503723 13.79330086 44.85546875 13.77929688 C39.21593679 13.76220492 33.57683313 13.77204443 27.93731689 13.79001427 C23.60852824 13.80084368 19.27984149 13.79740962 14.9510498 13.78963089 C12.87137807 13.78762655 10.79169714 13.79009631 8.71203613 13.79706955 C5.80777402 13.8046701 2.90420999 13.79309931 0 13.77636719 C-0.86347046 13.78243988 -1.72694092 13.78851257 -2.61657715 13.79476929 C-8.46829197 13.73216497 -8.46829197 13.73216497 -10.64276123 12.08312416 C-12.76292453 9.27371746 -12.28418292 6.76972419 -11.921875 3.38818359 C-8.81105382 -0.73393372 -4.76491044 -0.03351109 0 0 Z " fill="#221D22" transform="translate(32.921875,136.61181640625)"/>
<path d="M0 0 C0.91245483 -0.00525696 1.82490967 -0.01051392 2.76501465 -0.01593018 C5.7862247 -0.02915217 8.80690943 -0.02038425 11.828125 -0.01025391 C13.92415468 -0.01227401 16.02018367 -0.01518491 18.11621094 -0.01895142 C22.51113571 -0.02337775 26.9058777 -0.01693367 31.30078125 -0.00292969 C36.94031321 0.01416227 42.57941687 0.00432276 48.21893311 -0.01364708 C52.54772176 -0.02447649 56.87640851 -0.02104243 61.2052002 -0.0132637 C63.28487193 -0.01125937 65.36455286 -0.01372912 67.44421387 -0.02070236 C70.34847598 -0.02830291 73.25204001 -0.01673213 76.15625 0 C77.01972046 -0.00607269 77.88319092 -0.01214539 78.77282715 -0.0184021 C84.62454197 0.04420222 84.62454197 0.04420222 86.79901123 1.69324303 C88.91917453 4.50264973 88.44043292 7.006643 88.078125 10.38818359 C86.79901123 12.08312416 86.79901123 12.08312416 85.078125 13.38818359 C82.03627889 13.68461256 79.19922568 13.7977681 76.15625 13.77636719 C74.78756775 13.78425262 74.78756775 13.78425262 73.39123535 13.79229736 C70.3700253 13.80551936 67.34934057 13.79675143 64.328125 13.78662109 C62.23209532 13.78864119 60.13606633 13.7915521 58.04003906 13.7953186 C53.64511429 13.79974494 49.2503723 13.79330086 44.85546875 13.77929688 C39.21593679 13.76220492 33.57683313 13.77204443 27.93731689 13.79001427 C23.60852824 13.80084368 19.27984149 13.79740962 14.9510498 13.78963089 C12.87137807 13.78762655 10.79169714 13.79009631 8.71203613 13.79706955 C5.80777402 13.8046701 2.90420999 13.79309931 0 13.77636719 C-0.86347046 13.78243988 -1.72694092 13.78851257 -2.61657715 13.79476929 C-8.46829197 13.73216497 -8.46829197 13.73216497 -10.64276123 12.08312416 C-12.76292453 9.27371746 -12.28418292 6.76972419 -11.921875 3.38818359 C-8.81105382 -0.73393372 -4.76491044 -0.03351109 0 0 Z " fill="#221D22" transform="translate(32.921875,105.61181640625)"/>
<path d="M0 0 C0.91245483 -0.00525696 1.82490967 -0.01051392 2.76501465 -0.01593018 C5.7862247 -0.02915217 8.80690943 -0.02038425 11.828125 -0.01025391 C13.92415468 -0.01227401 16.02018367 -0.01518491 18.11621094 -0.01895142 C22.51113571 -0.02337775 26.9058777 -0.01693367 31.30078125 -0.00292969 C36.94031321 0.01416227 42.57941687 0.00432276 48.21893311 -0.01364708 C52.54772176 -0.02447649 56.87640851 -0.02104243 61.2052002 -0.0132637 C63.28487193 -0.01125937 65.36455286 -0.01372912 67.44421387 -0.02070236 C70.34847598 -0.02830291 73.25204001 -0.01673213 76.15625 0 C77.01972046 -0.00607269 77.88319092 -0.01214539 78.77282715 -0.0184021 C84.62454197 0.04420222 84.62454197 0.04420222 86.79901123 1.69324303 C88.91917453 4.50264973 88.44043292 7.006643 88.078125 10.38818359 C86.79901123 12.08312416 86.79901123 12.08312416 85.078125 13.38818359 C82.03627889 13.68461256 79.19922568 13.7977681 76.15625 13.77636719 C74.78756775 13.78425262 74.78756775 13.78425262 73.39123535 13.79229736 C70.3700253 13.80551936 67.34934057 13.79675143 64.328125 13.78662109 C62.23209532 13.78864119 60.13606633 13.7915521 58.04003906 13.7953186 C53.64511429 13.79974494 49.2503723 13.79330086 44.85546875 13.77929688 C39.21593679 13.76220492 33.57683313 13.77204443 27.93731689 13.79001427 C23.60852824 13.80084368 19.27984149 13.79740962 14.9510498 13.78963089 C12.87137807 13.78762655 10.79169714 13.79009631 8.71203613 13.79706955 C5.80777402 13.8046701 2.90420999 13.79309931 0 13.77636719 C-0.86347046 13.78243988 -1.72694092 13.78851257 -2.61657715 13.79476929 C-8.46829197 13.73216497 -8.46829197 13.73216497 -10.64276123 12.08312416 C-12.76292453 9.27371746 -12.28418292 6.76972419 -11.921875 3.38818359 C-8.81105382 -0.73393372 -4.76491044 -0.03351109 0 0 Z " fill="#221D22" transform="translate(146.921875,136.61181640625)"/>
<path d="M0 0 C0.91245483 -0.00525696 1.82490967 -0.01051392 2.76501465 -0.01593018 C5.7862247 -0.02915217 8.80690943 -0.02038425 11.828125 -0.01025391 C13.92415468 -0.01227401 16.02018367 -0.01518491 18.11621094 -0.01895142 C22.51113571 -0.02337775 26.9058777 -0.01693367 31.30078125 -0.00292969 C36.94031321 0.01416227 42.57941687 0.00432276 48.21893311 -0.01364708 C52.54772176 -0.02447649 56.87640851 -0.02104243 61.2052002 -0.0132637 C63.28487193 -0.01125937 65.36455286 -0.01372912 67.44421387 -0.02070236 C70.34847598 -0.02830291 73.25204001 -0.01673213 76.15625 0 C77.01972046 -0.00607269 77.88319092 -0.01214539 78.77282715 -0.0184021 C84.62454197 0.04420222 84.62454197 0.04420222 86.79901123 1.69324303 C88.91917453 4.50264973 88.44043292 7.006643 88.078125 10.38818359 C86.79901123 12.08312416 86.79901123 12.08312416 85.078125 13.38818359 C82.03627889 13.68461256 79.19922568 13.7977681 76.15625 13.77636719 C74.78756775 13.78425262 74.78756775 13.78425262 73.39123535 13.79229736 C70.3700253 13.80551936 67.34934057 13.79675143 64.328125 13.78662109 C62.23209532 13.78864119 60.13606633 13.7915521 58.04003906 13.7953186 C53.64511429 13.79974494 49.2503723 13.79330086 44.85546875 13.77929688 C39.21593679 13.76220492 33.57683313 13.77204443 27.93731689 13.79001427 C23.60852824 13.80084368 19.27984149 13.79740962 14.9510498 13.78963089 C12.87137807 13.78762655 10.79169714 13.79009631 8.71203613 13.79706955 C5.80777402 13.8046701 2.90420999 13.79309931 0 13.77636719 C-0.86347046 13.78243988 -1.72694092 13.78851257 -2.61657715 13.79476929 C-8.46829197 13.73216497 -8.46829197 13.73216497 -10.64276123 12.08312416 C-12.76292453 9.27371746 -12.28418292 6.76972419 -11.921875 3.38818359 C-8.81105382 -0.73393372 -4.76491044 -0.03351109 0 0 Z " fill="#221D22" transform="translate(146.921875,105.61181640625)"/>
<path d="M0 0 C1.06122574 -0.0076664 1.06122574 -0.0076664 2.14389038 -0.01548767 C4.48867186 -0.02941741 6.83316051 -0.02842437 9.17797852 -0.02612305 C10.80461233 -0.03000823 12.43124512 -0.03434253 14.05787659 -0.03910828 C17.47009568 -0.04657783 20.88221133 -0.046274 24.29443359 -0.04101562 C28.67064037 -0.03522108 33.04642391 -0.05214781 37.42256069 -0.0753603 C40.78284691 -0.09008129 44.14303083 -0.09097157 47.50334358 -0.08785057 C49.11691183 -0.08836465 50.73048568 -0.09361851 52.34402275 -0.10366249 C54.59942106 -0.11597786 56.8539903 -0.10926544 59.109375 -0.09765625 C60.39351791 -0.09828568 61.67766083 -0.0989151 63.00071716 -0.0995636 C66.11938477 0.2746582 66.11938477 0.2746582 68.03407288 1.57917786 C69.87237758 4.45098783 69.47238023 6.98003386 69.11938477 10.2746582 C68.03308105 11.96815491 68.03308105 11.96815491 66.11938477 13.2746582 C63.00744629 13.66233826 63.00744629 13.66233826 59.12524414 13.67871094 C58.41761429 13.68557419 57.70998444 13.69243744 56.98091125 13.69950867 C54.64144843 13.71781281 52.30265383 13.71393469 49.96313477 13.70825195 C48.33792909 13.71281171 46.71272534 13.71811667 45.08752441 13.72413635 C41.68123542 13.73307428 38.2751808 13.73063631 34.86889648 13.72070312 C30.50042536 13.70920635 26.13276169 13.72943163 21.76439667 13.75862026 C18.40837453 13.77695147 15.05254705 13.77669613 11.69648743 13.77098274 C10.08570726 13.77082918 8.47491418 13.77690225 6.86418152 13.78927422 C4.61344472 13.80412704 2.36421451 13.79355193 0.11352539 13.77636719 C-1.16760132 13.77620102 -2.44872803 13.77603485 -3.76867676 13.77586365 C-6.88061523 13.2746582 -6.88061523 13.2746582 -8.82946777 11.46986389 C-10.41235255 8.16418338 -9.71948118 5.75917827 -8.88061523 2.2746582 C-6.01280041 -0.59315663 -4.01659567 0.01442012 0 0 Z " fill="#221D22" transform="translate(51.880615234375,167.725341796875)"/>
<path d="M0 0 C0.69626999 -0.00686325 1.39253998 -0.0137265 2.10990906 -0.02079773 C4.41210306 -0.03910279 6.71361796 -0.03522311 9.01586914 -0.02954102 C10.61625898 -0.03410125 12.21664685 -0.03940635 13.81703186 -0.04542542 C17.17204745 -0.0543639 20.5268251 -0.05192536 23.88183594 -0.04199219 C28.18071168 -0.03050466 32.47876576 -0.05070616 36.77753353 -0.07990932 C40.08298457 -0.09825921 43.3882383 -0.09798129 46.69372749 -0.0922718 C48.27856155 -0.09211842 49.86340884 -0.09817679 51.4481945 -0.11056328 C53.66520521 -0.12544859 55.88069308 -0.11481647 58.09765625 -0.09765625 C59.98936806 -0.097407 59.98936806 -0.097407 61.91929626 -0.09715271 C65.11352539 0.40405273 65.11352539 0.40405273 67.55982971 2.20884705 C69.11352539 4.40405273 69.11352539 4.40405273 68.98852539 8.02905273 C68.11352539 11.40405273 68.11352539 11.40405273 66.11352539 13.40405273 C63.12184143 13.66474915 63.12184143 13.66474915 59.23291016 13.67871094 C58.52542633 13.68382187 57.8179425 13.6889328 57.08901978 13.69419861 C54.7442383 13.70812835 52.39974964 13.70713531 50.05493164 13.70483398 C48.42829783 13.70871917 46.80166504 13.71305347 45.17503357 13.71781921 C41.76281447 13.72528877 38.35069883 13.72498494 34.93847656 13.71972656 C30.56226978 13.71393201 26.18648625 13.73085875 21.81034946 13.75407124 C18.45006324 13.76879223 15.08987932 13.76968251 11.72956657 13.76656151 C10.11599832 13.76707558 8.50242448 13.77232945 6.88888741 13.78237343 C4.63348909 13.79468879 2.37891986 13.78797637 0.12353516 13.77636719 C-1.80267921 13.77731133 -1.80267921 13.77731133 -3.76780701 13.77827454 C-6.88647461 13.40405273 -6.88647461 13.40405273 -8.80116272 12.09953308 C-10.63946743 9.22772311 -10.23947007 6.69867708 -9.88647461 3.40405273 C-7.40621876 -0.43874591 -4.2817149 0.01835531 0 0 Z " fill="#221D22" transform="translate(144.886474609375,167.595947265625)"/>
<path d="M0 0 C0.91112045 -0.00953201 1.82224091 -0.01906403 2.76097107 -0.02888489 C4.24066124 -0.02751778 4.24066124 -0.02751778 5.75024414 -0.02612305 C6.76131729 -0.03040817 7.77239044 -0.0346933 8.81410217 -0.03910828 C10.95516205 -0.0448584 13.09624147 -0.04534684 15.23730469 -0.04101562 C18.51864882 -0.03785792 21.79908986 -0.06129893 25.08032227 -0.08666992 C27.15779508 -0.08894301 29.23527033 -0.08964637 31.31274414 -0.08862305 C32.29718002 -0.09783279 33.28161591 -0.10704254 34.29588318 -0.11653137 C35.21015579 -0.11030258 36.12442841 -0.10407379 37.06640625 -0.09765625 C38.27314247 -0.09860039 38.27314247 -0.09860039 39.5042572 -0.0995636 C42.14548106 0.37253382 43.02525765 1.12472774 44.59790039 3.2746582 C45.25224518 9.38187623 45.25224518 9.38187623 43.35668945 11.96815491 C41.1222832 13.62796687 39.85022639 13.66005134 37.08227539 13.67871094 C35.71570801 13.6977372 35.71570801 13.6977372 34.3215332 13.71714783 C33.34023437 13.71421219 32.35893555 13.71127655 31.34790039 13.70825195 C29.83341309 13.71611473 29.83341309 13.71611473 28.28833008 13.72413635 C26.15324829 13.73056099 24.01813113 13.72921388 21.88305664 13.72070312 C18.61028272 13.71219041 15.33925189 13.74095375 12.06665039 13.77270508 C9.99373425 13.77431703 7.92081501 13.77373967 5.84790039 13.77075195 C4.86660156 13.78198593 3.88530273 13.79321991 2.87426758 13.80479431 C1.5077002 13.79072289 1.5077002 13.79072289 0.11352539 13.77636719 C-0.68794922 13.77620102 -1.48942383 13.77603485 -2.31518555 13.77586365 C-4.40209961 13.2746582 -4.40209961 13.2746582 -6.19604492 11.46986389 C-8.00492745 8.17741849 -7.25868976 5.83280189 -6.40209961 2.2746582 C-3.96635856 -0.16108285 -3.33885723 0.01914087 0 0 Z " fill="#221D22" transform="translate(76.402099609375,43.725341796875)"/>
<path d="M0 0 C0.88779648 -0.01268417 1.77559296 -0.02536835 2.69029236 -0.03843689 C3.64658035 -0.03550125 4.60286835 -0.03256561 5.58813477 -0.02954102 C7.06577049 -0.03740379 7.06577049 -0.03740379 8.57325745 -0.04542542 C10.65706438 -0.0518502 12.74090757 -0.05050273 14.82470703 -0.04199219 C18.01408491 -0.03348848 21.20166858 -0.06222772 24.39086914 -0.09399414 C26.41495714 -0.09560637 28.43904832 -0.09502821 30.46313477 -0.09204102 C31.89453041 -0.10889198 31.89453041 -0.10889198 33.35484314 -0.12608337 C39.91830724 -0.05697554 39.91830724 -0.05697554 43.22900391 2.20849609 C44.59204102 4.40405273 44.59204102 4.40405273 44.52954102 8.02905273 C43.59204102 11.40405273 43.59204102 11.40405273 40.59204102 13.40405273 C38.54309082 13.66474915 38.54309082 13.66474915 36.16821289 13.67871094 C34.83167664 13.69300896 34.83167664 13.69300896 33.46813965 13.70759583 C32.5087146 13.70668442 31.54928955 13.70577301 30.56079102 13.70483398 C29.57332886 13.70911911 28.5858667 13.71340424 27.56848145 13.71781921 C25.48047655 13.72356286 23.39245165 13.72406253 21.30444336 13.71972656 C18.10439065 13.71656494 14.90526074 13.7400314 11.70532227 13.76538086 C9.67797969 13.76765362 7.65063461 13.76835746 5.62329102 13.76733398 C4.18415344 13.78114861 4.18415344 13.78114861 2.71594238 13.79524231 C1.82491821 13.78901352 0.93389404 13.78278473 0.01586914 13.77636719 C-1.15969543 13.77731133 -1.15969543 13.77731133 -2.35900879 13.77827454 C-4.96861811 13.30165353 -5.84780604 12.52539873 -7.40795898 10.40405273 C-8.06275409 4.29263175 -8.06275409 4.29263175 -6.16001892 1.71055603 C-3.9562472 0.06721327 -2.73248343 0.01891083 0 0 Z " fill="#221D22" transform="translate(142.407958984375,43.595947265625)"/>
<path d="M0 0 C0.8510582 -0.00953201 1.70211639 -0.01906403 2.57896423 -0.02888489 C3.9602224 -0.02751778 3.9602224 -0.02751778 5.36938477 -0.02612305 C6.31386978 -0.03040817 7.2583548 -0.0346933 8.23146057 -0.03910828 C10.23128456 -0.04485766 12.23112947 -0.04534738 14.23095703 -0.04101562 C17.29504005 -0.03785803 20.35815577 -0.06129905 23.42211914 -0.08666992 C25.36287313 -0.08894304 27.30362972 -0.08964635 29.24438477 -0.08862305 C30.62260658 -0.10243767 30.62260658 -0.10243767 32.02867126 -0.11653137 C32.88288162 -0.11030258 33.73709198 -0.10407379 34.6171875 -0.09765625 C35.36838364 -0.09828568 36.11957977 -0.0989151 36.89353943 -0.0995636 C39.45377151 0.38438331 40.33301512 1.19779876 41.87329102 3.2746582 C42.52882763 9.39299993 42.52882763 9.39299993 40.61486816 11.96716309 C38.46206455 13.5833879 37.30656664 13.66449535 34.63305664 13.69458008 C33.78207397 13.71049194 32.93109131 13.72640381 32.05432129 13.74279785 C31.1386438 13.74299927 30.22296631 13.74320068 29.27954102 13.7434082 C28.33647095 13.75102173 27.39340088 13.75863525 26.42175293 13.76647949 C24.42792408 13.77728459 22.4340386 13.78013194 20.44018555 13.77563477 C17.3843797 13.77466173 14.33107832 13.81629251 11.27563477 13.8605957 C9.3394421 13.86580203 7.40324068 13.86849091 5.46704102 13.8684082 C4.55136353 13.88480347 3.63568604 13.90119873 2.69226074 13.91809082 C0.31437959 13.8920889 -1.81305224 13.82376136 -4.12670898 13.2746582 C-6.23803711 10.93676758 -6.23803711 10.93676758 -7.12670898 8.2746582 C-6.80047602 2.7286978 -5.78099893 0.03549481 0 0 Z " fill="#221D22" transform="translate(79.126708984375,198.725341796875)"/>
<path d="M0 0 C0.82773422 -0.01591187 1.65546844 -0.03182373 2.50828552 -0.04821777 C3.39895218 -0.04841919 4.28961884 -0.04862061 5.20727539 -0.04882812 C6.12577774 -0.05644165 7.04428009 -0.06405518 7.99061584 -0.07189941 C9.93316937 -0.08270472 11.87578101 -0.08555177 13.81835938 -0.08105469 C16.79078076 -0.08008275 19.76061779 -0.12168978 22.73266602 -0.16601562 C24.62003042 -0.17122289 26.5074038 -0.17391081 28.39477539 -0.17382812 C29.28341782 -0.19022339 30.17206024 -0.20661865 31.08763123 -0.22351074 C37.23892299 -0.15462003 37.23892299 -0.15462003 40.46337891 2.79296875 C41.86743164 5.41992188 41.86743164 5.41992188 41.80493164 8.04492188 C40.79273421 10.60915538 39.99320961 11.70020381 37.86743164 13.41992188 C35.93237305 13.8008728 35.93237305 13.8008728 33.71899414 13.80810547 C32.47255127 13.82229019 32.47255127 13.82229019 31.20092773 13.83676147 C30.30712402 13.83068878 29.41332031 13.82461609 28.49243164 13.81835938 C27.11112061 13.82266464 27.11112061 13.82266464 25.7019043 13.82705688 C23.7551207 13.82909819 21.80831662 13.82356371 19.86157227 13.81103516 C16.87868465 13.79498243 13.89715203 13.8108816 10.91430664 13.83007812 C9.02367864 13.8280957 7.13305149 13.82425205 5.24243164 13.81835938 C4.34862793 13.82443207 3.45482422 13.83050476 2.53393555 13.83676147 C1.70297363 13.82730499 0.87201172 13.81784851 0.01586914 13.80810547 C-0.7145459 13.80571869 -1.44496094 13.80333191 -2.19750977 13.8008728 C-4.72192345 13.30389677 -5.60592092 12.46625007 -7.13256836 10.41992188 C-7.78854442 4.29747865 -7.78854442 4.29747865 -5.86741638 1.72741699 C-3.7457567 0.12839527 -2.63669133 0.03051806 0 0 Z " fill="#221D22" transform="translate(142.132568359375,198.580078125)"/>
</svg>
