<?xml version="1.0" encoding="UTF-8"?>
<svg version="1.1" xmlns="http://www.w3.org/2000/svg" width="2508" height="764">
<path d="M0 0 C1.01546906 0.00373123 1.01546906 0.00373123 2.05145264 0.00753784 C36.55095348 0.20288313 66.81846331 11.7414266 91.30883789 36.38330078 C97.43850075 42.77816279 102.35026469 49.64000672 106.75 57.3125 C107.11174316 57.94236816 107.47348633 58.57223633 107.84619141 59.22119141 C124.09145252 88.16288454 125.75 119.75407715 125.75 152.3125 C55.79 152.3125 -14.17 152.3125 -86.25 152.3125 C-81.47305984 174.28642473 -77.36980115 188.52267072 -64.25 205.3125 C-63.73824219 206.00859375 -63.22648437 206.7046875 -62.69921875 207.421875 C-51.41228524 221.93840305 -31.609413 230.77447801 -13.95703125 233.89453125 C13.60434677 237.00208388 41.46055467 231.42569141 63.4375 214 C69.19958512 209.09155712 74.48207033 203.74060321 79.75 198.3125 C80.74784715 197.31035178 81.74670513 196.30919424 82.75 195.3125 C85.72609884 197.59452632 88.69916372 199.88037444 91.66796875 202.171875 C94.6177885 204.44717762 97.58180922 206.702882 100.55078125 208.953125 C102.17985139 210.19770217 103.80875902 211.44249209 105.4375 212.6875 C106.62255127 213.57912842 106.62255127 213.57912842 107.83154297 214.48876953 C108.57162598 215.05708496 109.31170898 215.62540039 110.07421875 216.2109375 C111.0655481 216.96383057 111.0655481 216.96383057 112.0769043 217.73193359 C113.89754665 219.4518867 114.77355629 221.02288651 115.75 223.3125 C111.69321557 227.69663303 107.62033801 232.06468852 103.52734375 236.41503906 C102.05915005 237.98245685 100.60568836 239.56366001 99.15625 241.1484375 C79.82073379 261.60965157 53.10445931 271.53290771 25.75 275.3125 C25.1120752 275.4067627 24.47415039 275.50102539 23.81689453 275.59814453 C16.20589144 276.60323566 8.53892693 276.55616342 0.875 276.5625 C0.14145294 276.56317474 -0.59209412 276.56384949 -1.34786987 276.56454468 C-38.70469755 276.51003445 -71.1456112 263.86750102 -97.9921875 237.6328125 C-125.00654879 209.27194098 -134.88421031 170.96759691 -134.4609375 132.6875 C-133.53633149 94.97270657 -118.91030652 60.2638055 -91.8996582 33.9362793 C-67.02149473 10.56185521 -33.70994559 -0.14938248 0 0 Z M-66.25 67.3125 C-76.5247071 80.21675299 -86.25 97.30858608 -86.25 114.3125 C-32.13 114.3125 21.99 114.3125 77.75 114.3125 C75.3507009 92.71880812 71.31409211 76.69161987 55.75 61.3125 C54.71939453 60.24902344 54.71939453 60.24902344 53.66796875 59.1640625 C37.54081078 43.5455533 15.03878196 40.86301941 -6.3671875 41.09765625 C-29.17397218 41.68704507 -50.6110908 50.48341506 -66.25 67.3125 Z " fill="#000000" transform="translate(1535.25,290.6875)"/>
<path d="M0 0 C1.63352528 -0.00743927 1.63352528 -0.00743927 3.30005106 -0.01502883 C6.96266495 -0.02802015 10.6249164 -0.01958875 14.28753948 -0.01129913 C16.93458747 -0.01618636 19.58160894 -0.02225442 22.22864836 -0.02975702 C27.99082607 -0.04367308 33.75292525 -0.04640196 39.51511669 -0.04179764 C48.08379619 -0.03496852 56.65239613 -0.04521934 65.22106458 -0.0587552 C81.41481606 -0.08367827 97.60853458 -0.08818358 113.80230216 -0.08628923 C126.30682276 -0.08491667 138.8113319 -0.08873126 151.31585026 -0.09621429 C153.11175557 -0.09726463 154.90766088 -0.09831224 156.70356619 -0.09935716 C157.59503396 -0.0998765 158.48650173 -0.10039585 159.40498368 -0.10093093 C160.74462002 -0.10171114 160.74462002 -0.10171114 162.11131972 -0.10250711 C163.00589529 -0.10303111 163.90047086 -0.1035551 164.82215478 -0.10409497 C189.98685697 -0.11868065 215.15155496 -0.12695971 240.31626129 -0.12234497 C241.73958428 -0.12208704 241.73958428 -0.12208704 243.19166126 -0.1218239 C248.0010705 -0.12093499 252.81047972 -0.11999018 257.61988894 -0.11902589 C259.05265731 -0.11873934 259.05265731 -0.11873934 260.51437049 -0.118447 C262.44597494 -0.11805991 264.37757939 -0.11766958 266.30918384 -0.11727602 C296.3656144 -0.11130586 326.42196796 -0.126744 356.47838116 -0.15888214 C390.24056241 -0.19495203 424.00269484 -0.21429273 457.76489657 -0.20934343 C461.36432945 -0.20887345 464.96376234 -0.2084632 468.56319523 -0.20809174 C469.4494781 -0.20798935 470.33576098 -0.20788696 471.24890091 -0.20778148 C484.63299631 -0.20658623 498.01703899 -0.21855932 511.40112019 -0.23723602 C526.62172568 -0.25846511 541.84222054 -0.26233101 557.06283096 -0.24293643 C565.58140751 -0.23260362 574.09971426 -0.23609698 582.61826646 -0.25946729 C588.30903163 -0.27369613 593.9995971 -0.26973792 599.69034878 -0.25102152 C602.93250312 -0.24086861 606.17402754 -0.24130356 609.41616843 -0.25834221 C612.91225643 -0.27546641 616.40693476 -0.26182976 619.90296936 -0.24050903 C620.90468806 -0.25278656 621.90640677 -0.26506408 622.93848059 -0.27771366 C630.64231625 -0.17942226 637.25720996 1.85419293 643.05484687 7.12310567 C649.50185864 14.04469984 650.77758412 20.57670562 650.55040264 29.8713913 C649.64815576 37.59634318 646.11749043 43.22947273 640.17930889 48.1292038 C633.44133276 52.27267188 628.06960738 52.81603841 620.28049278 52.76622009 C618.64696751 52.77365937 618.64696751 52.77365937 616.98044172 52.78124893 C613.31782783 52.79424024 609.65557639 52.78580884 605.9929533 52.77751923 C603.34590532 52.78240645 600.69888384 52.78847451 598.05184442 52.79597712 C592.28966672 52.80989318 586.52756753 52.81262206 580.76537609 52.80801773 C572.19669659 52.80118861 563.62809665 52.81143944 555.0594282 52.82497529 C538.86567673 52.84989836 522.6719582 52.85440367 506.47819062 52.85250932 C493.97367003 52.85113677 481.46916088 52.85495136 468.96464252 52.86243439 C467.16873722 52.86348472 465.3728319 52.86453233 463.57692659 52.86557725 C462.23972493 52.86635627 462.23972493 52.86635627 460.8755091 52.86715102 C459.53587276 52.86793123 459.53587276 52.86793123 458.16917306 52.86872721 C457.27459749 52.8692512 456.38002192 52.86977519 455.458338 52.87031506 C430.29363581 52.88490075 405.12893782 52.8931798 379.96423149 52.88856506 C379.0153495 52.88839311 378.06646751 52.88822115 377.08883152 52.88804399 C372.27942229 52.88715509 367.47001306 52.88621027 362.66060384 52.88524598 C361.22783547 52.88495943 361.22783547 52.88495943 359.76612229 52.88466709 C357.83451784 52.88428 355.90291339 52.88388967 353.97130894 52.88349611 C323.91487838 52.87752596 293.85852482 52.89296409 263.80211163 52.92510223 C230.03993038 52.96117212 196.27779795 52.98051282 162.51559621 52.97556353 C158.91616333 52.97509354 155.31673045 52.97468329 151.71729755 52.97431183 C150.83101468 52.97420944 149.9447318 52.97410706 149.03159187 52.97400157 C135.64749647 52.97280632 122.26345379 52.98477941 108.8793726 53.00345612 C93.6587671 53.0246852 78.43827224 53.0285511 63.21766182 53.00915653 C54.69908527 52.99882371 46.18077853 53.00231707 37.66222632 53.02568738 C31.97146115 53.03991622 26.28089568 53.03595801 20.590144 53.01724161 C17.34798966 53.0070887 14.10646525 53.00752366 10.86432435 53.0245623 C7.36823635 53.0416865 3.87355802 53.02804985 0.37752342 53.00672913 C-0.62419528 53.01900665 -1.62591399 53.03128418 -2.6579878 53.04393375 C-10.36182346 52.94564235 -16.97671718 50.91202716 -22.77435409 45.64311442 C-29.22136586 38.72152025 -30.49709134 32.18951447 -30.26990986 22.8948288 C-29.36766298 15.16987692 -25.83699764 9.53674737 -19.89881611 4.6370163 C-13.16083997 0.49354821 -7.7891146 -0.04981831 0 0 Z " fill="#7800A0" transform="translate(117.85975360870361,151.61688995361328)"/>
<path d="M0 0 C102.3 0 204.6 0 310 0 C310 14.85 310 29.7 310 45 C266.77 45 223.54 45 179 45 C179 161.16 179 277.32 179 397 C163.16 397 147.32 397 131 397 C131 280.84 131 164.68 131 45 C87.77 45 44.54 45 0 45 C0 30.15 0 15.3 0 0 Z " fill="#000000" transform="translate(1122,163)"/>
<path d="M0 0 C23.07829975 20.03988455 30.8393882 48.07897253 33.0625 77.5625 C33.35618856 83.47361139 33.31798489 89.38664055 33.28955078 95.30322266 C33.28898462 96.99058526 33.2893072 98.67794835 33.29043579 100.36531067 C33.29100233 104.88274049 33.27936315 109.40006096 33.26528788 113.91746569 C33.25266215 118.66196142 33.25160079 123.40646052 33.24923706 128.15097046 C33.2430567 137.10709293 33.22669324 146.06316574 33.20653808 155.01926649 C33.18407094 165.22746334 33.17315864 175.43566274 33.16314721 185.64387822 C33.14232337 206.61678591 33.10569098 227.58962563 33.0625 248.5625 C18.2125 248.5625 3.3625 248.5625 -11.9375 248.5625 C-11.95937378 240.91803711 -11.95937378 240.91803711 -11.98168945 233.11914062 C-12.03211236 216.24756672 -12.09857297 199.37608383 -12.17321491 182.50460052 C-12.21806438 172.27928197 -12.25750372 162.0539974 -12.28393555 151.82861328 C-12.30700385 142.90986101 -12.3404995 133.99121728 -12.38620156 125.07255125 C-12.41001532 120.35591271 -12.42882134 115.63938087 -12.43511391 110.92268372 C-12.44121887 106.47062103 -12.46141053 102.01883093 -12.49177551 97.56686974 C-12.50046997 95.94492686 -12.50429648 94.32294824 -12.50250816 92.70098305 C-12.48702007 72.14637326 -15.73076416 51.41753115 -29.9375 35.5625 C-42.0916945 23.61276858 -57.91766236 21.19885322 -74.2421875 21.25976562 C-93.88697964 21.6561852 -112.29936162 27.8316769 -126.84765625 41.3828125 C-151.08648586 66.66368526 -151.39070999 103.87699429 -151.44361091 136.56763291 C-151.45313471 140.51940542 -151.4793465 144.47107078 -151.50361633 148.42277527 C-151.54690663 155.87003204 -151.5756816 163.31726759 -151.59893972 170.76461095 C-151.62619513 179.25834883 -151.67009198 187.7519769 -151.71522844 196.24563563 C-151.80753657 213.68454626 -151.8772655 231.12344705 -151.9375 248.5625 C-166.7875 248.5625 -181.6375 248.5625 -196.9375 248.5625 C-196.96255615 241.68414307 -196.9876123 234.80578613 -197.01342773 227.71899414 C-197.09446002 205.65554276 -197.18010516 183.59211102 -197.26861694 161.52868843 C-197.28238484 158.09570454 -197.29611218 154.66272048 -197.30981445 151.22973633 C-197.31254276 150.54635421 -197.31527106 149.86297209 -197.31808204 149.15888142 C-197.36203457 138.12554773 -197.40271005 127.09220432 -197.44215261 116.05885369 C-197.48276435 104.71908218 -197.52701763 93.37932982 -197.57437855 82.0395841 C-197.60083427 75.67805304 -197.6256823 69.31652519 -197.64657402 62.95497322 C-197.66632778 56.95584829 -197.69052403 50.956757 -197.71799088 44.95766258 C-197.72726313 42.76689396 -197.73497246 40.57611801 -197.74091911 38.38533783 C-197.77115588 27.57029505 -197.89747923 16.82022015 -198.72596836 6.03363705 C-199.04845799 -0.78281529 -198.9375 -7.61342336 -198.9375 -14.4375 C-185.0775 -14.4375 -171.2175 -14.4375 -156.9375 -14.4375 C-156.20006505 -10.01289031 -155.77350601 -6.15202493 -155.65625 -1.71875 C-155.60017578 0.17423828 -155.60017578 0.17423828 -155.54296875 2.10546875 C-155.47265625 4.74348958 -155.40234375 7.38151042 -155.33203125 10.01953125 C-155.27595703 11.91251953 -155.27595703 11.91251953 -155.21875 13.84375 C-155.18845703 14.98908203 -155.15816406 16.13441406 -155.12695312 17.31445312 C-154.94335174 20.4621758 -154.51659163 23.4654148 -153.9375 26.5625 C-153.60878906 25.95664062 -153.28007813 25.35078125 -152.94140625 24.7265625 C-140.06364491 2.04215906 -117.9040498 -11.07297833 -93.29223633 -17.87768555 C-62.20962344 -26.09779481 -25.40323106 -20.10504337 0 0 Z " fill="#000000" transform="translate(1923.9375,311.4375)"/>
<path d="M0 0 C13.43577344 11.51815226 21.68394725 26.19652465 26.9296875 42.92578125 C27.28087646 44.01040649 27.28087646 44.01040649 27.63916016 45.11694336 C34.01379202 66.76098913 33.08672447 89.3268355 32.98386931 111.62821603 C32.96489231 116.4487607 32.96333575 121.26931326 32.95979309 126.08988953 C32.95053353 135.18406347 32.92600381 144.27812696 32.89574462 153.37225264 C32.86200898 163.74012043 32.84566682 174.10799399 32.83065832 184.47590315 C32.79944753 205.77177086 32.74451336 227.06748751 32.6796875 248.36328125 C17.8296875 248.36328125 2.9796875 248.36328125 -12.3203125 248.36328125 C-12.34218628 240.66552368 -12.34218628 240.66552368 -12.36450195 232.81225586 C-12.41490987 215.82891641 -12.48136761 198.8456675 -12.55602741 181.86241817 C-12.6008899 171.56868963 -12.64032634 161.27499494 -12.66674805 150.98120117 C-12.6898057 142.00349516 -12.72328974 133.02589717 -12.76901406 124.04827696 C-12.792842 119.29981226 -12.81163883 114.55145384 -12.81792641 109.80293083 C-12.82402482 105.32214459 -12.84419374 100.84162994 -12.87458801 96.36094475 C-12.88329273 94.72729385 -12.88710677 93.09360735 -12.88532066 91.45993423 C-12.87023974 71.2789339 -16.364277 50.61002513 -30.3828125 35.078125 C-42.47538074 23.52540356 -58.22050897 20.88294589 -74.3684082 21.00976562 C-91.802325 21.44831532 -110.81478009 25.72642968 -123.5078125 38.578125 C-125.3203125 40.36328125 -125.3203125 40.36328125 -127.3203125 40.36328125 C-127.58585937 40.94722656 -127.85140625 41.53117187 -128.125 42.1328125 C-129.35372859 44.42563611 -130.73867136 46.09409734 -132.4453125 48.05078125 C-148.7672542 68.80247748 -151.41033057 97.0295144 -151.52563477 122.46362305 C-151.53523793 123.84454118 -151.54524934 125.22545653 -151.55563354 126.60636902 C-151.58242494 130.32045718 -151.60357221 134.03455772 -151.62363553 137.74868751 C-151.64565606 141.64309365 -151.67296536 145.53746281 -151.69969177 149.43183899 C-151.74940323 156.79089032 -151.79442104 164.14996242 -151.83771414 171.50905401 C-151.88727189 179.89369638 -151.94212066 188.27830161 -151.99739373 196.66290796 C-152.11088256 213.89633256 -152.2170941 231.1297916 -152.3203125 248.36328125 C-166.8403125 248.36328125 -181.3603125 248.36328125 -196.3203125 248.36328125 C-196.34013184 242.28752686 -196.35995117 236.21177246 -196.38037109 229.9519043 C-196.44775378 209.71180395 -196.52528931 189.47175146 -196.60783958 169.23170757 C-196.65757095 156.97927229 -196.7040115 144.72684242 -196.7421875 132.47436523 C-196.77554202 121.7721903 -196.8155974 111.07006298 -196.86310256 100.3679412 C-196.88794536 94.72210563 -196.90984032 89.07629986 -196.92365646 83.43042564 C-196.98483772 59.31117171 -197.33433946 35.26412666 -198.62996483 11.17592144 C-198.7192205 9.51534348 -198.80835981 7.85475926 -198.89736938 6.19416809 C-198.939104 5.41778439 -198.98083862 4.64140069 -199.02383792 3.84149021 C-199.33949342 -2.3204402 -199.42856176 -8.466737 -199.3203125 -14.63671875 C-193.35718084 -14.66136449 -187.39407855 -14.67955275 -181.4309082 -14.69165039 C-179.40062952 -14.69669153 -177.37035448 -14.70352432 -175.34008789 -14.7121582 C-172.42853903 -14.72423342 -169.517038 -14.72994909 -166.60546875 -14.734375 C-165.6919313 -14.73953629 -164.77839386 -14.74469757 -163.83717346 -14.75001526 C-161.66455823 -14.75021043 -159.49203954 -14.6988368 -157.3203125 -14.63671875 C-155.54315627 -12.85956252 -156.1059257 -10.24496895 -156.0390625 -7.8359375 C-155.98298828 -6.02706055 -155.98298828 -6.02706055 -155.92578125 -4.18164062 C-155.87357422 -2.2722168 -155.87357422 -2.2722168 -155.8203125 -0.32421875 C-155.56776396 8.60383979 -155.16874796 17.47015373 -154.3203125 26.36328125 C-153.65346436 25.2508606 -153.65346436 25.2508606 -152.97314453 24.1159668 C-139.46387834 1.79477674 -117.91711289 -11.8804184 -92.9453125 -18.38671875 C-61.86890142 -25.91508876 -25.14466735 -20.51354504 0 0 Z " fill="#000000" transform="translate(2235.3203125,311.63671875)"/>
<path d="M0 0 C1.51088594 -0.00461254 3.02176739 -0.01096783 4.5326395 -0.01890898 C8.67221865 -0.03557709 12.811428 -0.02736751 16.95100832 -0.0149641 C21.42007204 -0.00590559 25.88907264 -0.01988732 30.35812378 -0.03088379 C39.10816322 -0.04866503 47.85806538 -0.04483078 56.60811019 -0.03323323 C63.71980017 -0.02419763 70.83145168 -0.02297545 77.94314575 -0.02732849 C78.95553426 -0.02794142 79.96792277 -0.02855436 81.01098973 -0.02918586 C83.06767361 -0.03046477 85.12435749 -0.03176162 87.18104136 -0.03307623 C106.46404035 -0.04448087 125.74696327 -0.03137012 145.02994978 -0.00987476 C161.57363418 0.00799611 178.1172063 0.00489197 194.66088867 -0.0135498 C213.87514946 -0.03495854 233.08934357 -0.04338224 252.30361462 -0.03110075 C254.35270881 -0.02982656 256.40180301 -0.02856908 258.45089722 -0.02732849 C259.96316536 -0.02640284 259.96316536 -0.02640284 261.50598437 -0.02545848 C268.60867098 -0.0220056 275.71131529 -0.02783261 282.81399536 -0.0372467 C291.47047068 -0.04846809 300.12680092 -0.04542367 308.78325963 -0.02412373 C313.19946861 -0.01361522 317.61543575 -0.00948808 322.03164291 -0.02272034 C326.07570245 -0.03465422 330.11929635 -0.0280655 334.16331375 -0.00681013 C335.62484461 -0.00234826 337.08641494 -0.00460106 338.54792035 -0.01431328 C347.5206661 -0.0693585 354.102747 0.21433191 361.18530273 6.18371582 C368.33390155 15.0192996 369.08322223 22.17195002 368.19702148 33.50793457 C367.08446688 39.45083042 363.84964076 44.66883811 359.19702148 48.50793457 C351.83019981 53.27654214 344.96286059 53.07281198 336.39404297 53.01586914 C334.88315703 53.02048168 333.37227558 53.02683697 331.86140347 53.03477812 C327.72182432 53.05144624 323.58261496 53.04323665 319.44303465 53.03083324 C314.97397093 53.02177473 310.50497033 53.03575646 306.03591919 53.04675293 C297.28587975 53.06453418 288.53597759 53.06069992 279.78593278 53.04910237 C272.6742428 53.04006677 265.56259129 53.03884459 258.45089722 53.04319763 C257.43850871 53.04381056 256.42612019 53.0444235 255.38305324 53.045055 C253.32636935 53.04633391 251.26968548 53.04763076 249.21300161 53.04894537 C229.93000262 53.06035001 210.6470797 53.04723926 191.36409318 53.0257439 C174.82040879 53.00787303 158.27683667 53.01097717 141.7331543 53.02941895 C122.51889351 53.05082769 103.3046994 53.05925138 84.09042835 53.04696989 C82.04133416 53.0456957 79.99223996 53.04443822 77.94314575 53.04319763 C76.43087761 53.04227198 76.43087761 53.04227198 74.8880586 53.04132763 C67.78537198 53.03787474 60.68272767 53.04370175 53.58004761 53.05311584 C44.92357229 53.06433723 36.26724205 53.06129281 27.61078334 53.03999287 C23.19457436 53.02948436 18.77860722 53.02535722 14.36240005 53.03858948 C10.31834052 53.05052336 6.27474661 53.04393464 2.23072922 53.02267927 C0.76919836 53.0182174 -0.69237197 53.0204702 -2.15387738 53.03018242 C-11.12662313 53.08522764 -17.70870403 52.80153723 -24.79125977 46.83215332 C-31.93985858 37.99656954 -32.68917926 30.84391912 -31.80297852 19.50793457 C-30.69042391 13.56503872 -27.4555978 8.34703103 -22.80297852 4.50793457 C-15.43615684 -0.260673 -8.56881762 -0.05694284 0 0 Z " fill="#221D22" transform="translate(31.802978515625,399.4920654296875)"/>
<path d="M0 0 C1.51088594 -0.00461254 3.02176739 -0.01096783 4.5326395 -0.01890898 C8.67221865 -0.03557709 12.811428 -0.02736751 16.95100832 -0.0149641 C21.42007204 -0.00590559 25.88907264 -0.01988732 30.35812378 -0.03088379 C39.10816322 -0.04866503 47.85806538 -0.04483078 56.60811019 -0.03323323 C63.71980017 -0.02419763 70.83145168 -0.02297545 77.94314575 -0.02732849 C78.95553426 -0.02794142 79.96792277 -0.02855436 81.01098973 -0.02918586 C83.06767361 -0.03046477 85.12435749 -0.03176162 87.18104136 -0.03307623 C106.46404035 -0.04448087 125.74696327 -0.03137012 145.02994978 -0.00987476 C161.57363418 0.00799611 178.1172063 0.00489197 194.66088867 -0.0135498 C213.87514946 -0.03495854 233.08934357 -0.04338224 252.30361462 -0.03110075 C254.35270881 -0.02982656 256.40180301 -0.02856908 258.45089722 -0.02732849 C259.96316536 -0.02640284 259.96316536 -0.02640284 261.50598437 -0.02545848 C268.60867098 -0.0220056 275.71131529 -0.02783261 282.81399536 -0.0372467 C291.47047068 -0.04846809 300.12680092 -0.04542367 308.78325963 -0.02412373 C313.19946861 -0.01361522 317.61543575 -0.00948808 322.03164291 -0.02272034 C326.07570245 -0.03465422 330.11929635 -0.0280655 334.16331375 -0.00681013 C335.62484461 -0.00234826 337.08641494 -0.00460106 338.54792035 -0.01431328 C347.5206661 -0.0693585 354.102747 0.21433191 361.18530273 6.18371582 C368.33390155 15.0192996 369.08322223 22.17195002 368.19702148 33.50793457 C367.08446688 39.45083042 363.84964076 44.66883811 359.19702148 48.50793457 C351.83019981 53.27654214 344.96286059 53.07281198 336.39404297 53.01586914 C334.88315703 53.02048168 333.37227558 53.02683697 331.86140347 53.03477812 C327.72182432 53.05144624 323.58261496 53.04323665 319.44303465 53.03083324 C314.97397093 53.02177473 310.50497033 53.03575646 306.03591919 53.04675293 C297.28587975 53.06453418 288.53597759 53.06069992 279.78593278 53.04910237 C272.6742428 53.04006677 265.56259129 53.03884459 258.45089722 53.04319763 C257.43850871 53.04381056 256.42612019 53.0444235 255.38305324 53.045055 C253.32636935 53.04633391 251.26968548 53.04763076 249.21300161 53.04894537 C229.93000262 53.06035001 210.6470797 53.04723926 191.36409318 53.0257439 C174.82040879 53.00787303 158.27683667 53.01097717 141.7331543 53.02941895 C122.51889351 53.05082769 103.3046994 53.05925138 84.09042835 53.04696989 C82.04133416 53.0456957 79.99223996 53.04443822 77.94314575 53.04319763 C76.43087761 53.04227198 76.43087761 53.04227198 74.8880586 53.04132763 C67.78537198 53.03787474 60.68272767 53.04370175 53.58004761 53.05311584 C44.92357229 53.06433723 36.26724205 53.06129281 27.61078334 53.03999287 C23.19457436 53.02948436 18.77860722 53.02535722 14.36240005 53.03858948 C10.31834052 53.05052336 6.27474661 53.04393464 2.23072922 53.02267927 C0.76919836 53.0182174 -0.69237197 53.0204702 -2.15387738 53.03018242 C-11.12662313 53.08522764 -17.70870403 52.80153723 -24.79125977 46.83215332 C-31.93985858 37.99656954 -32.68917926 30.84391912 -31.80297852 19.50793457 C-30.69042391 13.56503872 -27.4555978 8.34703103 -22.80297852 4.50793457 C-15.43615684 -0.260673 -8.56881762 -0.05694284 0 0 Z " fill="#221D22" transform="translate(31.802978515625,275.4920654296875)"/>
<path d="M0 0 C1.49209686 -0.00489154 2.98418993 -0.01108256 4.47627658 -0.01845789 C8.56858183 -0.03484739 12.6606943 -0.03254151 16.75302088 -0.02708292 C21.16965064 -0.02441149 25.58622914 -0.03894669 30.00283813 -0.05117798 C38.65272375 -0.07222968 47.30254234 -0.07677297 55.95245055 -0.07499009 C62.98405254 -0.07368229 70.01563362 -0.07748757 77.04723167 -0.08491516 C79.07296632 -0.08701437 81.09870096 -0.08911197 83.1244356 -0.09120798 C84.13271691 -0.09225151 85.14099821 -0.09329504 86.17983349 -0.09437019 C105.2482683 -0.11327166 124.31666463 -0.1122227 143.38510492 -0.10540086 C160.82465304 -0.09982601 178.26405423 -0.12064855 195.70356802 -0.15376133 C213.61454713 -0.18750506 231.52545586 -0.20266577 249.43646735 -0.1980443 C259.49047319 -0.19580023 269.54434324 -0.20103358 279.59832191 -0.22593689 C288.15815939 -0.24695885 296.71778662 -0.25053314 305.27763275 -0.2316373 C309.64351054 -0.22248482 314.00899643 -0.22132131 318.3748436 -0.24199295 C322.3753315 -0.26072488 326.37510715 -0.25617519 330.37556811 -0.23344713 C331.81900072 -0.22926691 333.26248816 -0.23344206 334.70586274 -0.24704307 C344.19331584 -0.33032112 352.14256883 0.50483326 359.38288909 7.13441324 C365.85994259 14.023531 367.11954726 20.60355955 366.89274597 29.88269043 C365.99049909 37.60764231 362.45983376 43.24077186 356.52165222 48.14050293 C348.7589503 52.91411848 341.92753369 52.82510822 332.96517944 52.78881836 C331.47308258 52.7937099 329.98098952 52.79990092 328.48890287 52.80727625 C324.39659762 52.82366575 320.30448514 52.82135987 316.21215856 52.81590128 C311.79552881 52.81322985 307.3789503 52.82776505 302.96234131 52.83999634 C294.31245569 52.86104804 285.6626371 52.86559133 277.01272889 52.86380845 C269.9811269 52.86250064 262.94954582 52.86630593 255.91794777 52.87373352 C253.89221313 52.87583273 251.86647848 52.87793033 249.84074384 52.88002634 C248.83246254 52.88106987 247.82418123 52.8821134 246.78534595 52.88318855 C227.71691115 52.90209002 208.64851482 52.90104106 189.58007453 52.89421922 C172.1405264 52.88864437 154.70112521 52.90946691 137.26161142 52.94257969 C119.35063232 52.97632342 101.43972358 52.99148413 83.52871209 52.98686266 C73.47470625 52.98461859 63.4208362 52.98985194 53.36685753 53.01475525 C44.80702006 53.03577721 36.24739282 53.0393515 27.68754669 53.02045566 C23.3216689 53.01130318 18.95618301 53.01013967 14.59033585 53.03081131 C10.58984795 53.04954324 6.5900723 53.04499355 2.58961133 53.02226549 C1.14617873 53.01808527 -0.29730872 53.02226042 -1.74068329 53.03586143 C-11.22813639 53.11913948 -19.17738938 52.2839851 -26.41770965 45.65440512 C-32.89476315 38.76528736 -34.15436781 32.18525881 -33.92756653 22.90612793 C-33.02531965 15.18117605 -29.49465431 9.5480465 -23.55647278 4.64831543 C-15.79377086 -0.12530012 -8.96235424 -0.03628986 0 0 Z " fill="#221D22" transform="translate(489.5174102783203,275.6055908203125)"/>
<path d="M0 0 C1.26041841 -0.00644889 2.52083682 -0.01289778 3.81944972 -0.0195421 C5.21048575 -0.01660009 6.60152137 -0.01346468 7.99255657 -0.01015663 C9.47625115 -0.01389428 10.95994376 -0.01849626 12.44363326 -0.02388728 C16.51729083 -0.03611847 20.59086628 -0.03585667 24.66453803 -0.03349853 C29.05934166 -0.03309039 33.45411897 -0.04412917 37.84891033 -0.05361366 C46.45781266 -0.07022517 55.0666876 -0.07572327 63.67560462 -0.07683842 C70.67338659 -0.0777888 77.67115952 -0.08189859 84.66893864 -0.08823967 C104.50941359 -0.10585231 124.34986691 -0.11507848 144.19034974 -0.11357872 C145.25991121 -0.11349881 146.32947269 -0.1134189 147.43144512 -0.11333656 C148.50231264 -0.1132548 149.57318015 -0.11317304 150.6764982 -0.1130888 C168.03269748 -0.11227584 185.38881 -0.13141595 202.74498419 -0.1596133 C220.56664936 -0.18833842 238.3882722 -0.2021538 256.20996112 -0.20042574 C266.21530743 -0.19976173 276.22056278 -0.20525925 286.22588825 -0.22678185 C294.74439624 -0.24498871 303.26277203 -0.24934502 311.78129105 -0.235763 C316.12673707 -0.22923092 320.47192941 -0.22912475 324.81735134 -0.2464695 C328.79799793 -0.26219471 332.77818957 -0.25934246 336.75882503 -0.24190123 C338.19621421 -0.23883011 339.6336373 -0.24246804 341.07098649 -0.25362138 C351.00589248 -0.3255862 357.62718744 0.96357646 365.91459942 6.38226891 C371.5760189 12.30102564 373.96793941 18.0460037 374.28959942 26.25726891 C373.96083703 34.02111923 372.13189695 39.83458733 366.53959942 45.35492516 C360.5333817 50.29585088 355.18376296 52.50435232 347.32919884 52.51453781 C346.06878043 52.5209867 344.80836202 52.5274356 343.50974911 52.53407991 C342.11871309 52.5311379 340.72767747 52.52800249 339.33664227 52.52469444 C337.85294769 52.52843209 336.36925507 52.53303407 334.88556558 52.53842509 C330.81190801 52.55065628 326.73833256 52.55039448 322.66466081 52.54803634 C318.26985717 52.5476282 313.87507987 52.55866699 309.48028851 52.56815147 C300.87138618 52.58476298 292.26251123 52.59026108 283.65359422 52.59137623 C276.65581225 52.59232661 269.65803931 52.5964364 262.6602602 52.60277748 C242.81978525 52.62039012 222.97933193 52.62961629 203.1388491 52.62811653 C202.06928762 52.62803662 200.99972615 52.62795671 199.89775372 52.62787437 C198.8268862 52.62779261 197.75601869 52.62771085 196.65270064 52.62762661 C179.29650135 52.62681365 161.94038884 52.64595376 144.58421465 52.67415111 C126.76254948 52.70287623 108.94092663 52.71669161 91.11923772 52.71496356 C81.1138914 52.71429954 71.10863605 52.71979706 61.10331059 52.74131966 C52.58480259 52.75952652 44.06642681 52.76388283 35.54790779 52.75030081 C31.20246177 52.74376873 26.85726942 52.74366256 22.5118475 52.76100731 C18.53120091 52.77673252 14.55100927 52.77388027 10.57037381 52.75643905 C9.13298463 52.75336792 7.69556154 52.75700585 6.25821235 52.7681592 C-3.67669364 52.84012401 -10.2979886 51.55096135 -18.58540058 46.13226891 C-24.24682006 40.21351217 -26.63874057 34.46853412 -26.96040058 26.25726891 C-26.63163819 18.49341858 -24.80269811 12.67995048 -19.21040058 7.15961266 C-13.20418286 2.21868693 -7.85456413 0.01018549 0 0 Z " fill="#221D22" transform="translate(482.33540058135986,399.74273109436035)"/>
<path d="M0 0 C1.47049805 -0.01160156 1.47049805 -0.01160156 2.97070312 -0.0234375 C8.76463882 -0.00791456 13.75832139 0.58967614 19.3125 2.25 C19.42931659 11.70194572 19.17361179 21.06633592 18.56787109 30.49584961 C18.43478927 32.6054706 18.31694129 34.71564414 18.19921875 36.82617188 C18.11549994 38.17193233 18.03089992 39.51763834 17.9453125 40.86328125 C17.87199707 42.06766846 17.79868164 43.27205566 17.72314453 44.51293945 C17.58763184 45.41616943 17.45211914 46.31939941 17.3125 47.25 C14.45055263 48.68097369 12.53594169 47.5838319 9.57421875 46.796875 C-10.52948265 41.93587639 -33.02566891 46.07892197 -50.5 56.625 C-67.63384093 68.11301942 -75.82533153 87.89958993 -79.81118774 107.56903076 C-83.29725089 125.4843221 -83.02579657 143.76747741 -83.09221697 161.94216442 C-83.10808661 165.72843351 -83.13479758 169.51462766 -83.1602478 173.30084229 C-83.20662142 180.4364649 -83.24356276 187.57210229 -83.27692068 194.70779634 C-83.31543899 202.84599986 -83.36476885 210.98412735 -83.41490483 219.12226629 C-83.51760691 235.8314609 -83.60563728 252.54068832 -83.6875 269.25 C-98.2075 269.25 -112.7275 269.25 -127.6875 269.25 C-127.70731934 262.9476123 -127.72713867 256.64522461 -127.74755859 250.15185547 C-127.8149616 229.1494207 -127.89249665 208.14703191 -127.97502708 187.14465141 C-128.02474392 174.43156968 -128.07118411 161.71849311 -128.109375 149.00537109 C-128.14274519 137.89994482 -128.182808 126.79456428 -128.23029006 115.68918908 C-128.25511804 109.83142956 -128.27701654 103.97369861 -128.29084396 98.11590195 C-128.35366391 72.39417027 -128.7535488 46.74981792 -130.08504295 21.05871391 C-130.15510823 19.6685425 -130.15510823 19.6685425 -130.22658896 18.25028682 C-130.31490775 16.5186146 -130.40795785 14.78717513 -130.50646234 13.05605245 C-130.60567467 11.12230445 -130.65252789 9.18597556 -130.6875 7.25 C-129.6875 6.25 -129.6875 6.25 -125.71850586 6.13647461 C-123.94644393 6.1366338 -122.1743774 6.14233215 -120.40234375 6.15234375 C-119.47152481 6.1537587 -118.54070587 6.15517365 -117.5816803 6.15663147 C-114.59608809 6.16224828 -111.61056971 6.1748036 -108.625 6.1875 C-106.60612087 6.19251284 -104.58724057 6.19707612 -102.56835938 6.20117188 C-97.60802129 6.21137413 -92.6478437 6.23094618 -87.6875 6.25 C-87.0275 19.78 -86.3675 33.31 -85.6875 47.25 C-82.2225 41.805 -82.2225 41.805 -78.6875 36.25 C-63.44310248 16.199487 -38.95120772 4.88092256 -14.59838867 0.63818359 C-9.72875399 -0.01120994 -4.90576567 -0.03916779 0 0 Z " fill="#000000" transform="translate(2477.6875,290.75)"/>
<path d="M0 0 C1.13812728 -0.00709439 2.27625456 -0.01418877 3.44887054 -0.02149814 C7.24131792 -0.03902184 11.03273284 -0.02100055 14.82516479 -0.00291443 C17.55255931 -0.00529806 20.27991574 -0.0151498 23.0072937 -0.02459717 C29.6328473 -0.04292772 36.25810501 -0.03449287 42.88364924 -0.01650894 C48.26951897 -0.00245679 53.65530862 0.00140426 59.04119492 -0.00195122 C59.80908066 -0.00242866 60.5769664 -0.0029061 61.36812141 -0.00339801 C62.92826624 -0.00442439 64.48841105 -0.00547975 66.04855584 -0.00656378 C79.82799235 -0.01512126 93.60728639 0.00151442 107.38668823 0.03126526 C120.74742616 0.06011162 134.10795895 0.06717966 147.46871948 0.05177307 C162.03256677 0.03500208 176.59631678 0.03098498 191.16016662 0.04848343 C192.71381178 0.05032775 194.26745696 0.05216248 195.82110214 0.0539875 C196.58544922 0.05489959 197.3497963 0.05581168 198.13730542 0.05675141 C203.5157798 0.06235036 208.89420658 0.05905573 214.27267838 0.05244255 C220.82841824 0.0447015 227.38395639 0.05148991 233.93965568 0.07661759 C237.28258061 0.08909391 240.62493096 0.09312651 243.96790695 0.08407593 C247.5951454 0.07538723 251.22147069 0.09132945 254.84863281 0.11352539 C256.42597236 0.10116424 256.42597236 0.10116424 258.03517735 0.08855337 C265.63775871 0.17442092 270.99040798 1.74119126 276.75827026 6.77662659 C277.7057312 7.87877502 277.7057312 7.87877502 278.67233276 9.00318909 C279.64299683 10.09760315 279.64299683 10.09760315 280.63327026 11.21412659 C285.28591687 17.96374068 285.12382603 25.73735341 284.29733276 33.62818909 C282.14994614 41.00920636 277.65481373 46.38986845 271.29733276 50.62818909 C267.85425406 52.21511127 265.15111849 52.87943623 261.36839771 52.8882513 C260.39622549 52.8953169 259.42405326 52.90238249 258.42242128 52.90966219 C257.36212305 52.9072471 256.30182483 52.90483202 255.20939636 52.90234375 C254.07695234 52.90758043 252.94450832 52.91281711 251.77774781 52.91821247 C247.97475168 52.93324051 244.17188977 52.93391825 240.36886597 52.93458557 C237.64546567 52.94112404 234.92207703 52.95058348 232.19868469 52.95980835 C224.7935874 52.98264695 217.38851879 52.99057786 209.98339105 52.99563479 C205.35750099 52.99889342 200.73161923 53.00541694 196.10573387 53.01263618 C183.29205881 53.03220134 170.47839147 53.04860581 157.66470051 53.05151272 C156.43499345 53.05179407 156.43499345 53.05179407 155.18044383 53.05208111 C153.51857166 53.05244736 151.85669948 53.05281106 150.1948273 53.05317222 C149.36989678 53.05335503 148.54496626 53.05353785 147.69503784 53.0537262 C146.4561274 53.05399702 146.4561274 53.05399702 145.19218846 53.05427331 C131.81347992 53.05781382 118.43493245 53.08482883 105.05627976 53.12222409 C91.31285374 53.16033073 77.56950759 53.17967037 63.82602757 53.17997223 C56.11269569 53.1805563 48.39955592 53.18901573 40.68627357 53.21796989 C34.11729902 53.24251549 27.54858663 53.24974546 20.97957859 53.23472237 C17.63023037 53.22756577 14.28181958 53.23109055 10.93246078 53.25113297 C7.29458633 53.27157208 3.65804514 53.2610519 0.02018738 53.24291992 C-1.02895724 53.25611989 -2.07810185 53.26931986 -3.15903872 53.28291982 C-10.97791509 53.19412403 -17.93908343 51.39356474 -23.61537093 45.71457475 C-28.47295474 39.8643525 -31.3919719 32.47602242 -31.05422974 24.80006409 C-29.88014733 17.54684389 -27.17531244 10.6249521 -21.70266724 5.62818909 C-14.53411507 0.99976371 -8.41603833 -0.09512951 0 0 Z " fill="#221D22" transform="translate(115.70266723632813,523.3718109130859)"/>
<path d="M0 0 C0.95487324 -0.00445784 1.90974649 -0.00891569 2.89355528 -0.01350862 C3.94479751 -0.01332426 4.99603975 -0.01313989 6.0791378 -0.01294994 C7.7517976 -0.01846498 7.7517976 -0.01846498 9.4582485 -0.02409142 C13.21448173 -0.03515076 16.97068733 -0.03897593 20.72693443 -0.04278088 C23.41224903 -0.04904384 26.09756064 -0.05567755 28.78287315 -0.0626936 C36.85588875 -0.08245766 44.92890561 -0.09252464 53.00193936 -0.10142139 C56.80425763 -0.10580482 60.60657451 -0.11117153 64.40889168 -0.11641026 C77.05006242 -0.1334233 89.69123229 -0.1479169 102.33241272 -0.155159 C105.61300851 -0.15706888 108.89360429 -0.15898921 112.17420006 -0.16094494 C112.98957121 -0.16142868 113.80494236 -0.16191242 114.64502172 -0.16241082 C127.84990787 -0.17070895 141.05470336 -0.19604183 154.25954993 -0.22852562 C167.81870898 -0.26160883 181.37782199 -0.27960894 194.93702161 -0.28280324 C202.54916464 -0.28496729 210.16117552 -0.29370034 217.77327919 -0.31926441 C224.25702571 -0.34098879 230.74060798 -0.34901339 237.22438677 -0.33929763 C240.53090463 -0.33475771 243.83701354 -0.33880999 247.14349937 -0.35605907 C250.73349643 -0.37373826 254.32263634 -0.36669015 257.9126339 -0.35352612 C259.46942075 -0.36997998 259.46942075 -0.36997998 261.05765784 -0.38676625 C270.06088709 -0.30716381 277.18256202 2.30726226 283.87293053 8.42328358 C288.65360307 13.86207468 290.77447103 20.67954397 290.65418053 27.85687733 C289.74887468 35.29058589 286.0570359 42.26917581 280.37683678 47.13422108 C275.43034356 50.2128734 270.62845163 52.25466279 264.75646687 52.27123547 C263.80221032 52.27631001 262.84795378 52.28138455 261.86478037 52.28661287 C260.81422026 52.28711063 259.76366014 52.28760838 258.68126488 52.28812122 C257.56686391 52.29250348 256.45246295 52.29688573 255.30429226 52.30140078 C251.55039592 52.31481152 247.79652307 52.32097279 244.04260826 52.32709217 C241.35891606 52.3349914 238.67522689 52.34325511 235.99153709 52.35187244 C227.92296977 52.37639558 219.85439629 52.39102448 211.78580317 52.40393251 C209.50636885 52.40764483 207.22693514 52.41161804 204.94750142 52.41568518 C190.78936479 52.44092464 176.63122717 52.46297554 162.47307301 52.47541332 C159.19351701 52.47834298 155.91396105 52.48130464 152.63440514 52.48431873 C151.41174188 52.48543781 151.41174188 52.48543781 150.16437835 52.48657949 C136.96661173 52.49922712 123.76898001 52.532442 110.57127642 52.57412057 C97.01776353 52.61657139 83.46431963 52.64011208 69.91074044 52.64533389 C62.30244302 52.64874469 54.69435633 52.66046051 47.08612442 52.69343662 C40.60494635 52.72148181 34.1240222 52.73241706 27.64278816 52.72124116 C24.33808684 52.71606551 21.03402652 52.72161348 17.72937965 52.7437067 C14.13957644 52.76639707 10.55110468 52.75810178 6.96129417 52.74222279 C5.40887659 52.76304592 5.40887659 52.76304592 3.82509702 52.78428972 C-4.63351544 52.69233809 -11.03454352 50.17674648 -17.49816322 44.69672108 C-24.44602384 36.31841857 -25.47955072 29.86285332 -24.62316322 19.13422108 C-22.3267498 11.07181308 -16.39059328 6.39201855 -9.49035072 2.14984608 C-6.24791938 0.38618049 -3.62039619 0.00783626 0 0 Z " fill="#221D22" transform="translate(480.6231632232666,523.8657789230347)"/>
<path d="M0 0 C1.66321067 -0.00514485 3.32641587 -0.01243039 4.98960876 -0.02168274 C9.48554445 -0.04013162 13.98088393 -0.02730018 18.47679448 -0.00759244 C23.19225407 0.00884667 27.90767746 -0.00002601 32.62315369 -0.00511169 C40.53923009 -0.00962634 48.45506972 0.00619921 56.37109375 0.03417969 C65.51154157 0.06623981 74.65156273 0.06620949 83.79204088 0.04896492 C92.60149594 0.03307994 101.41079518 0.03984536 110.22024345 0.05690193 C113.96210334 0.06375852 117.70383781 0.06275435 121.44569588 0.05535698 C125.85441563 0.04767379 130.26265201 0.0598863 134.67128944 0.08720589 C136.28531714 0.09406911 137.89939015 0.09420988 139.51341629 0.08699036 C149.13927742 0.04890761 156.40086361 0.17968965 163.96069336 6.77954102 C164.59233398 7.51430664 165.22397461 8.24907227 165.87475586 9.00610352 C166.52186523 9.73571289 167.16897461 10.46532227 167.83569336 11.21704102 C172.48833997 17.96665511 172.32624912 25.74026784 171.49975586 33.63110352 C169.35236924 41.01212078 164.85723682 46.39278287 158.49975586 50.63110352 C154.41545219 52.62027536 151.07132916 52.88814449 146.54988098 52.90525818 C145.51887576 52.9131132 145.51887576 52.9131132 144.46704215 52.9211269 C142.17035156 52.93609472 139.8738844 52.93683134 137.57714844 52.9375 C135.92762884 52.9451238 134.27811279 52.95355168 132.62860107 52.96272278 C128.15108891 52.98465634 123.67364504 52.99346546 119.19608521 52.99854922 C116.39604717 53.00219497 113.59602695 53.00843626 110.79599571 53.01555061 C101.01975089 53.04004379 91.24355909 53.05309615 81.46728516 53.05664062 C72.36784435 53.06027298 63.26874145 53.09014712 54.16940385 53.13204521 C46.34754373 53.16679284 38.52579531 53.18218986 30.70385855 53.18288666 C26.03654469 53.18367813 21.3695749 53.19235623 16.70234108 53.22088432 C12.3084358 53.24714088 7.91515793 53.24922816 3.52120972 53.23322868 C1.91444717 53.23142004 0.30764792 53.23805184 -1.29903603 53.25404739 C-10.20166689 53.33722784 -18.08661081 53.15118349 -25.50024414 47.63110352 C-31.24119239 41.73656513 -34.53853637 34.99781235 -34.93774414 26.75610352 C-34.66227486 18.61723854 -31.38659748 11.25584115 -25.50024414 5.63110352 C-17.81902843 -0.52937048 -9.35886138 -0.07371909 0 0 Z " fill="#221D22" transform="translate(228.500244140625,27.368896484375)"/>
<path d="M0 0 C1.61232636 -0.00542776 3.22464775 -0.01255407 4.83695984 -0.02124023 C9.19445511 -0.03939894 13.55156946 -0.03243708 17.90907097 -0.01972389 C22.48126078 -0.00955743 27.05341919 -0.01899966 31.62561035 -0.02526855 C39.30206117 -0.03253437 46.97835778 -0.02298529 54.65478516 -0.00390625 C63.51459631 0.01786046 72.37403919 0.01080833 81.23384142 -0.01121187 C88.85706233 -0.0293963 96.48017273 -0.03190935 104.10340834 -0.0214572 C108.64926656 -0.01523896 113.194952 -0.01434046 117.74079895 -0.02760315 C122.01572112 -0.03920545 126.29017105 -0.03105654 130.5650425 -0.00802612 C132.12866751 -0.00276231 133.69233264 -0.0042127 135.25594139 -0.01307678 C146.38947475 -0.07034678 155.01646321 1.07817073 163.47070312 8.80664062 C168.30968283 14.31176559 170.32956813 21.06209929 170.18164062 28.31054688 C169.43407847 36.27984153 165.96604743 42.2735868 159.97460938 47.51757812 C154.27304438 51.13728728 149.1769422 52.64011486 142.417099 52.67147827 C141.41315837 52.67805165 141.41315837 52.67805165 140.3889361 52.68475783 C138.14136796 52.69813518 135.89383901 52.70432236 133.64624023 52.71044922 C132.03642602 52.71835123 130.42661357 52.72662025 128.81680298 52.73522949 C123.52437022 52.76144533 118.23192959 52.77675999 112.93945312 52.79101562 C111.11607928 52.79637611 109.29270549 52.80175362 107.46933174 52.80714798 C99.88167856 52.828779 92.2940275 52.84751363 84.70635128 52.85877037 C73.84217559 52.87499493 62.97835839 52.90813379 52.11431783 52.96517122 C44.4708522 53.00392727 36.82748221 53.02340995 29.18392092 53.02869093 C24.62163141 53.03233758 20.05972428 53.04428495 15.49754143 53.07679367 C11.20053295 53.10697301 6.90413621 53.11315127 2.60704422 53.10140991 C1.03575034 53.10118998 -0.53557273 53.10942847 -2.10676765 53.12706375 C-13.30283922 53.24581875 -21.47083381 51.82220205 -29.96289062 44.14257812 C-35.98406356 37.48236561 -36.59349405 31.71714621 -36.36914062 22.89257812 C-35.63350101 15.66993459 -32.20644161 11.28110472 -27.29492188 6.15820312 C-18.75225833 -0.0172163 -10.18364871 -0.05773098 0 0 Z " fill="#221D22" transform="translate(492.025390625,27.482421875)"/>
<path d="M0 0 C1.53483577 -0.0057077 3.0696673 -0.01267351 4.60449219 -0.02079773 C8.75950251 -0.03870007 12.9143013 -0.03756631 17.06933856 -0.03185534 C20.54344001 -0.02875929 24.01750107 -0.03486057 27.49159676 -0.04089409 C35.68990745 -0.05492807 43.8881139 -0.0533874 52.08642578 -0.04199219 C60.53267806 -0.03051149 68.97861279 -0.04458831 77.42482322 -0.07138866 C84.68789699 -0.09356849 91.95087123 -0.10017792 99.21397644 -0.09431225 C103.54690251 -0.09094699 107.87962505 -0.09332901 112.21252251 -0.11056328 C116.28795474 -0.12606688 120.36291768 -0.12203938 124.4383316 -0.10325813 C125.92981694 -0.09958168 127.42133732 -0.10265315 128.9127903 -0.11314392 C138.21110248 -0.17353021 145.08276028 0.18092074 152.38110352 6.55249023 C153.01274414 7.28725586 153.64438477 8.02202148 154.29516602 8.77905273 C154.94227539 9.50866211 155.58938477 10.23827148 156.25610352 10.98999023 C160.90875012 17.73960433 160.74665928 25.51321706 159.92016602 33.40405273 C157.77277939 40.78507 153.27764698 46.16573209 146.92016602 50.40405273 C142.96461875 52.30731042 139.78427917 52.65865579 135.41239929 52.67147827 C133.43789795 52.68427322 133.43789795 52.68427322 131.42350769 52.69732666 C129.97146594 52.69662769 128.51942429 52.69570465 127.06738281 52.69458008 C125.53284376 52.70056677 123.99830773 52.70737264 122.46377563 52.7149353 C118.30042806 52.73258913 114.13716273 52.73729045 109.97378135 52.73856688 C107.37074986 52.73998949 104.76773921 52.7442612 102.16471291 52.74956131 C93.07805684 52.7680602 83.99145942 52.77623218 74.90478516 52.7746582 C66.44381884 52.77345714 57.98310775 52.79455292 49.52220601 52.82614553 C42.25069059 52.85232637 34.97925843 52.86302473 27.70769626 52.86174738 C23.36801955 52.86123824 19.02856967 52.86689481 14.68894005 52.88810349 C10.60534691 52.90751621 6.52219624 52.90758986 2.43858719 52.89307022 C0.94387094 52.8909847 -0.55087322 52.89566773 -2.04554176 52.90779114 C-11.35026993 52.97834592 -18.27629204 52.66624312 -25.54077148 46.22045898 C-26.17241211 45.47666992 -26.80405273 44.73288086 -27.45483398 43.96655273 C-28.10194336 43.2253418 -28.74905273 42.48413086 -29.41577148 41.72045898 C-34.27572672 34.95531003 -33.73855875 27.37545627 -33.07983398 19.40405273 C-31.49794567 12.77338314 -27.5828374 7.40435277 -22.07983398 3.40405273 C-15.13839278 -0.64894799 -7.83183173 -0.02627052 0 0 Z " fill="#221D22" transform="translate(240.079833984375,647.595947265625)"/>
<path d="M0 0 C1.47424841 -0.00570989 2.9484924 -0.01267654 4.42272949 -0.02079773 C8.40833439 -0.03867579 12.39371849 -0.03757094 16.37935138 -0.03185534 C19.71423096 -0.02875578 23.04906859 -0.03486444 26.38394219 -0.04089409 C34.25485792 -0.05492006 42.12566507 -0.05339406 49.99658203 -0.04199219 C58.1003139 -0.03051204 66.20371477 -0.04458918 74.30740303 -0.07138866 C81.2809193 -0.09358197 88.25433195 -0.1001749 95.22788101 -0.09431225 C99.38588744 -0.09095023 103.54368172 -0.09330728 107.70165825 -0.11056328 C111.61295828 -0.12608854 115.52376984 -0.12201567 119.43505096 -0.10325813 C120.86483991 -0.09958764 122.29466551 -0.10263556 123.72442055 -0.11314392 C135.13699794 -0.19057657 143.24014568 1.54291195 151.64282227 9.50952148 C157.35561553 15.76393397 158.03933162 21.68447435 157.74438477 30.06811523 C156.84420054 38.16029765 152.90225721 42.31686234 146.98266602 47.64233398 C138.97117419 53.05129029 131.11061585 52.84092369 121.74658203 52.80810547 C120.27233362 52.81381536 118.79808963 52.82078201 117.32385254 52.8289032 C113.33824764 52.84678126 109.35286354 52.84567641 105.36723065 52.83996081 C102.03235108 52.83686125 98.69751344 52.84296991 95.36263984 52.84899956 C87.49172411 52.86302553 79.62091696 52.86149953 71.75 52.85009766 C63.64626813 52.83861751 55.54286726 52.85269465 47.439179 52.87949413 C40.46566273 52.90168744 33.49225008 52.90828037 26.51870102 52.90241772 C22.36069459 52.8990557 18.20290031 52.90141275 14.04492378 52.91866875 C10.13362375 52.93419401 6.22281219 52.93012114 2.31153107 52.9113636 C0.88174212 52.90769311 -0.54808347 52.91074102 -1.97783852 52.92124939 C-13.39041591 52.99868204 -21.49356365 51.26519352 -29.89624023 43.29858398 C-35.6090335 37.04417149 -36.29274959 31.12363112 -35.99780273 22.73999023 C-35.09761851 14.64780782 -31.15567518 10.49124312 -25.23608398 5.16577148 C-17.22459216 -0.24318482 -9.36403382 -0.03281822 0 0 Z " fill="#221D22" transform="translate(491.626708984375,647.595947265625)"/>
</svg>
